<svg width="42" height="42" viewBox="0 0 42 42" fill="none" xmlns="http://www.w3.org/2000/svg">
  <path d="M20.9982 7.98635C19.8415 7.98635 18.957 7.12108 18.957 5.98957V2.32881C18.957 1.1973 19.8415 0.332031 20.9982 0.332031C22.1548 0.332031 23.0393 1.1973 23.0393 2.32881V5.98957C23.0393 7.05452 22.1548 7.98635 20.9982 7.98635Z"
        fill="#dddddd" fill-opacity="0.15"/>
  <path d="M20.9982 41.666C19.8415 41.666 18.957 40.8008 18.957 39.6693V36.0085C18.957 34.877 19.8415 34.0117 20.9982 34.0117C22.1548 34.0117 23.0393 34.877 23.0393 36.0085V39.6693C23.0393 40.8008 22.1548 41.666 20.9982 41.666Z"
        fill="#dddddd" fill-opacity="0.65"/>
  <path d="M13.3642 10.0268C12.6869 10.0268 12.0095 9.69244 11.6031 9.02364L9.77424 5.88026C9.23236 4.94393 9.57103 3.6732 10.5193 3.13816C11.4676 2.60312 12.7546 2.93752 13.2965 3.87385L15.1253 7.01723C15.6672 7.95355 15.3285 9.22428 14.3802 9.75932C14.1093 9.89308 13.7029 10.0268 13.3642 10.0268Z"
        fill="#dddddd" fill-opacity="0.1"/>
  <path d="M30.4619 39.1128C29.7845 39.1128 29.1072 38.7784 28.7007 38.1096L26.8719 34.9662C26.33 34.0299 26.6687 32.7591 27.617 32.2241C28.5653 31.6891 29.8522 32.0235 30.3941 32.9598L32.223 36.1032C32.7649 37.0395 32.4262 38.3102 31.4779 38.8453C31.1392 39.0459 30.8005 39.1128 30.4619 39.1128Z"
        fill="#dddddd" fill-opacity="0.55"/>
  <path d="M8.0292 15.3839C7.69423 15.3839 7.35926 15.3163 7.02428 15.1136L3.87554 13.2885C2.93761 12.7478 2.60264 11.4635 3.1386 10.5172C3.67455 9.57092 4.94745 9.23295 5.88538 9.7737L9.03412 11.5987C9.97204 12.1395 10.307 13.4237 9.77106 14.37C9.36909 15.046 8.69915 15.3839 8.0292 15.3839Z"
        fill="#dddddd" fill-opacity="0.05"/>
  <path d="M37.1821 32.4816C36.8472 32.4816 36.5122 32.414 36.1772 32.2112L32.9615 30.3862C32.0236 29.8455 31.6886 28.5612 32.2245 27.6149C32.7605 26.6686 34.0334 26.3306 34.9713 26.8714L38.1201 28.6964C39.058 29.2371 39.393 30.5214 38.857 31.4677C38.522 32.1436 37.8521 32.4816 37.1821 32.4816Z"
        fill="#dddddd" fill-opacity="0.45"/>
  <path d="M5.98957 23.0393H2.32881C1.1973 23.0393 0.332031 22.1548 0.332031 20.9982C0.332031 19.8415 1.1973 18.957 2.32881 18.957H5.98957C7.12108 18.957 7.98635 19.8415 7.98635 20.9982C7.98635 22.1548 7.05452 23.0393 5.98957 23.0393Z"
        fill="#dddddd" fill-opacity="0.02"/>
  <path d="M39.6693 23.0393H36.0085C34.877 23.0393 34.0117 22.1548 34.0117 20.9982C34.0117 19.8415 34.877 18.957 36.0085 18.957H39.6693C40.8008 18.957 41.666 19.8415 41.666 20.9982C41.666 22.1548 40.8008 23.0393 39.6693 23.0393Z"
        fill="#dddddd" fill-opacity="0.35"/>
  <path d="M4.88046 32.4816C4.21051 32.4816 3.54056 32.1436 3.1386 31.4677C2.60264 30.5214 2.93761 29.2371 3.87554 28.6964L7.02428 26.8714C7.96221 26.3306 9.2351 26.6686 9.77106 27.6149C10.307 28.5612 9.97204 29.8455 9.03412 30.3862L5.88538 32.2112C5.6174 32.414 5.28242 32.4816 4.88046 32.4816Z"
        fill="#dddddd" fill-opacity="0.85"/>
  <path d="M33.9664 15.3839C33.2964 15.3839 32.6265 15.046 32.2245 14.37C31.6886 13.4237 32.0236 12.1395 32.9615 11.5987L36.1102 9.7737C37.0481 9.23295 38.321 9.57092 38.857 10.5172C39.393 11.4635 39.058 12.7478 38.1201 13.2885L34.9713 15.1136C34.6363 15.3163 34.3014 15.3839 33.9664 15.3839Z"
        fill="#dddddd" fill-opacity="0.25"/>
  <path d="M11.5354 39.1128C11.1967 39.1128 10.858 39.0459 10.5193 38.8453C9.57103 38.3102 9.23236 37.0395 9.77424 36.1032L11.6031 32.9598C12.145 32.0235 13.4319 31.6891 14.3802 32.2241C15.3285 32.7591 15.6672 34.0299 15.1253 34.9662L13.2965 38.1096C12.8901 38.7784 12.2127 39.1128 11.5354 39.1128Z"
        fill="#dddddd" fill-opacity="0.75"/>
  <path d="M28.633 10.0268C28.2943 10.0268 27.9557 9.95996 27.617 9.75932C26.6687 9.22428 26.33 7.95355 26.8719 7.01723L28.7007 3.87385C29.2426 2.93752 30.5296 2.60312 31.4779 3.13816C32.4262 3.6732 32.7649 4.94393 32.223 5.88026L30.3941 9.02364C29.9877 9.62556 29.3104 10.0268 28.633 10.0268Z"
        fill="#dddddd" fill-opacity="0.2"/>
</svg>
